<mxfile host="app.diagrams.net" agent="Mozilla/5.0 (Windows NT 10.0; Win64; x64) AppleWebKit/537.36 (KHTML, like Gecko) Chrome/130.0.0.0 Safari/537.36" version="24.8.3">
  <diagram name="第 1 页" id="yd0BF8ma2050-YYUEpnQ">
    <mxGraphModel dx="1562" dy="891" grid="1" gridSize="10" guides="1" tooltips="1" connect="1" arrows="1" fold="1" page="1" pageScale="1" pageWidth="1169" pageHeight="827" math="0" shadow="0">
      <root>
        <mxCell id="0" />
        <mxCell id="1" parent="0" />
        <mxCell id="3hz-Cu_VJg6a0MOkvYrD-1" value="&lt;font color=&quot;#ffffff&quot; style=&quot;font-size: 14px;&quot;&gt;FC-1 Linear&lt;/font&gt;" style="rounded=1;whiteSpace=wrap;html=1;fillColor=#2C7FB3;strokeColor=#003366;" parent="1" vertex="1">
          <mxGeometry x="560" y="290" width="160" height="30" as="geometry" />
        </mxCell>
        <mxCell id="3hz-Cu_VJg6a0MOkvYrD-2" value="&lt;font color=&quot;#ffffff&quot; style=&quot;font-size: 14px;&quot;&gt;FC-1 Linear&lt;/font&gt;" style="rounded=1;whiteSpace=wrap;html=1;fillColor=#2C7FB3;strokeColor=#003366;" parent="1" vertex="1">
          <mxGeometry x="800" y="290" width="160" height="30" as="geometry" />
        </mxCell>
        <mxCell id="3hz-Cu_VJg6a0MOkvYrD-3" value="&lt;font color=&quot;#ffffff&quot; style=&quot;font-size: 14px;&quot;&gt;FC-1 Linear&lt;/font&gt;" style="rounded=1;whiteSpace=wrap;html=1;fillColor=#2C7FB3;strokeColor=#003366;" parent="1" vertex="1">
          <mxGeometry x="320" y="200" width="160" height="30" as="geometry" />
        </mxCell>
        <mxCell id="3hz-Cu_VJg6a0MOkvYrD-4" value="&lt;font color=&quot;#ffffff&quot; style=&quot;font-size: 14px;&quot;&gt;LSTM-256&lt;/font&gt;" style="rounded=1;whiteSpace=wrap;html=1;fillColor=#2C7FB3;strokeColor=#003366;" parent="1" vertex="1">
          <mxGeometry x="560" y="350" width="160" height="30" as="geometry" />
        </mxCell>
        <mxCell id="3hz-Cu_VJg6a0MOkvYrD-5" value="&lt;font color=&quot;#ffffff&quot; style=&quot;font-size: 14px;&quot;&gt;LSTM-256&lt;/font&gt;" style="rounded=1;whiteSpace=wrap;html=1;fillColor=#2C7FB3;strokeColor=#003366;" parent="1" vertex="1">
          <mxGeometry x="800" y="350" width="160" height="30" as="geometry" />
        </mxCell>
        <mxCell id="3hz-Cu_VJg6a0MOkvYrD-6" value="Q&lt;sub&gt;k|k-1&lt;/sub&gt;" style="ellipse;whiteSpace=wrap;html=1;aspect=fixed;strokeWidth=2;strokeColor=#FF8000;" parent="1" vertex="1">
          <mxGeometry x="610" y="190" width="60" height="60" as="geometry" />
        </mxCell>
        <mxCell id="3hz-Cu_VJg6a0MOkvYrD-11" value="" style="endArrow=block;html=1;rounded=1;exitX=0.5;exitY=0;exitDx=0;exitDy=0;entryX=0.5;entryY=1;entryDx=0;entryDy=0;strokeWidth=3;curved=0;strokeColor=#2C7FB3;endSize=6;startSize=6;jumpStyle=none;endFill=1;" parent="1" target="3hz-Cu_VJg6a0MOkvYrD-4" edge="1">
          <mxGeometry width="50" height="50" relative="1" as="geometry">
            <mxPoint x="640" y="420" as="sourcePoint" />
            <mxPoint x="740" y="430" as="targetPoint" />
          </mxGeometry>
        </mxCell>
        <mxCell id="Bz3XmAj7K0o91D-MTdjv-1" value="" style="endArrow=block;html=1;rounded=1;exitX=0.5;exitY=0;exitDx=0;exitDy=0;entryX=0.5;entryY=1;entryDx=0;entryDy=0;strokeWidth=3;curved=0;strokeColor=#2C7FB3;endSize=6;startSize=6;jumpStyle=none;endFill=1;" parent="1" source="3hz-Cu_VJg6a0MOkvYrD-4" target="3hz-Cu_VJg6a0MOkvYrD-1" edge="1">
          <mxGeometry width="50" height="50" relative="1" as="geometry">
            <mxPoint x="490" y="340" as="sourcePoint" />
            <mxPoint x="490" y="300" as="targetPoint" />
          </mxGeometry>
        </mxCell>
        <mxCell id="Bz3XmAj7K0o91D-MTdjv-2" value="" style="endArrow=block;html=1;rounded=1;exitX=0.5;exitY=0;exitDx=0;exitDy=0;entryX=0.5;entryY=1;entryDx=0;entryDy=0;strokeWidth=3;curved=0;strokeColor=#2C7FB3;endSize=6;startSize=6;jumpStyle=none;endFill=1;" parent="1" source="3hz-Cu_VJg6a0MOkvYrD-1" target="3hz-Cu_VJg6a0MOkvYrD-6" edge="1">
          <mxGeometry width="50" height="50" relative="1" as="geometry">
            <mxPoint x="740" y="210" as="sourcePoint" />
            <mxPoint x="740" y="170" as="targetPoint" />
          </mxGeometry>
        </mxCell>
        <mxCell id="Bz3XmAj7K0o91D-MTdjv-3" value="" style="endArrow=block;html=1;rounded=1;exitX=0.5;exitY=0;exitDx=0;exitDy=0;entryX=0.5;entryY=1;entryDx=0;entryDy=0;strokeWidth=3;curved=0;strokeColor=#2C7FB3;endSize=6;startSize=6;jumpStyle=none;endFill=1;" parent="1" target="3hz-Cu_VJg6a0MOkvYrD-5" edge="1">
          <mxGeometry width="50" height="50" relative="1" as="geometry">
            <mxPoint x="880" y="420" as="sourcePoint" />
            <mxPoint x="1040" y="380" as="targetPoint" />
          </mxGeometry>
        </mxCell>
        <mxCell id="Bz3XmAj7K0o91D-MTdjv-4" value="" style="endArrow=block;html=1;rounded=1;exitX=0.5;exitY=0;exitDx=0;exitDy=0;entryX=0.5;entryY=1;entryDx=0;entryDy=0;strokeWidth=3;curved=0;strokeColor=#2C7FB3;endSize=6;startSize=6;jumpStyle=none;endFill=1;" parent="1" source="3hz-Cu_VJg6a0MOkvYrD-5" target="3hz-Cu_VJg6a0MOkvYrD-2" edge="1">
          <mxGeometry width="50" height="50" relative="1" as="geometry">
            <mxPoint x="1060" y="260" as="sourcePoint" />
            <mxPoint x="1060" y="220" as="targetPoint" />
          </mxGeometry>
        </mxCell>
        <mxCell id="Bz3XmAj7K0o91D-MTdjv-5" value="" style="endArrow=block;html=1;rounded=1;exitX=0.5;exitY=0;exitDx=0;exitDy=0;entryX=0.5;entryY=1;entryDx=0;entryDy=0;strokeWidth=3;curved=0;strokeColor=#2C7FB3;endSize=6;startSize=6;jumpStyle=none;endFill=1;" parent="1" source="3hz-Cu_VJg6a0MOkvYrD-2" edge="1">
          <mxGeometry width="50" height="50" relative="1" as="geometry">
            <mxPoint x="1030" y="190" as="sourcePoint" />
            <mxPoint x="880" y="250" as="targetPoint" />
          </mxGeometry>
        </mxCell>
        <mxCell id="Bz3XmAj7K0o91D-MTdjv-6" value="&lt;font color=&quot;#ffffff&quot; style=&quot;font-size: 14px;&quot;&gt;FC-1 1024 Relu&lt;/font&gt;" style="rounded=1;whiteSpace=wrap;html=1;fillColor=#2C7FB3;strokeColor=#003366;" parent="1" vertex="1">
          <mxGeometry x="320" y="230" width="160" height="30" as="geometry" />
        </mxCell>
        <mxCell id="Bz3XmAj7K0o91D-MTdjv-7" value="&lt;font color=&quot;#ffffff&quot; style=&quot;font-size: 14px;&quot;&gt;FC-1 1024 Relu&lt;/font&gt;" style="rounded=1;whiteSpace=wrap;html=1;fillColor=#2C7FB3;strokeColor=#003366;" parent="1" vertex="1">
          <mxGeometry x="320" y="260" width="160" height="30" as="geometry" />
        </mxCell>
        <mxCell id="Bz3XmAj7K0o91D-MTdjv-8" value="&lt;font color=&quot;#ffffff&quot; style=&quot;font-size: 14px;&quot;&gt;LSTM-1024&lt;/font&gt;" style="rounded=1;whiteSpace=wrap;html=1;fillColor=#2C7FB3;strokeColor=#003366;" parent="1" vertex="1">
          <mxGeometry x="320" y="340" width="160" height="30" as="geometry" />
        </mxCell>
        <mxCell id="Bz3XmAj7K0o91D-MTdjv-9" value="&lt;font face=&quot;Helvetica&quot; style=&quot;font-size: 14px;&quot;&gt;&lt;b style=&quot;&quot;&gt;Dropout-0.7&lt;/b&gt;&lt;/font&gt;" style="rounded=0;whiteSpace=wrap;html=1;strokeColor=#2C7FB3;" parent="1" vertex="1">
          <mxGeometry x="320" y="320" width="160" height="20" as="geometry" />
        </mxCell>
        <mxCell id="Bz3XmAj7K0o91D-MTdjv-11" value="&lt;font color=&quot;#ffffff&quot; style=&quot;font-size: 14px;&quot;&gt;LSTM-1024&lt;/font&gt;" style="rounded=1;whiteSpace=wrap;html=1;fillColor=#2C7FB3;strokeColor=#003366;" parent="1" vertex="1">
          <mxGeometry x="320" y="420" width="160" height="30" as="geometry" />
        </mxCell>
        <mxCell id="Bz3XmAj7K0o91D-MTdjv-12" value="&lt;font face=&quot;Helvetica&quot; style=&quot;font-size: 14px;&quot;&gt;&lt;b style=&quot;&quot;&gt;Dropout-0.7&lt;/b&gt;&lt;/font&gt;" style="rounded=0;whiteSpace=wrap;html=1;strokeColor=#2C7FB3;" parent="1" vertex="1">
          <mxGeometry x="320" y="400" width="160" height="20" as="geometry" />
        </mxCell>
        <mxCell id="Bz3XmAj7K0o91D-MTdjv-13" value="&lt;font color=&quot;#ffffff&quot; style=&quot;font-size: 14px;&quot;&gt;LSTM-1024&lt;/font&gt;" style="rounded=1;whiteSpace=wrap;html=1;fillColor=#2C7FB3;strokeColor=#003366;" parent="1" vertex="1">
          <mxGeometry x="320" y="500" width="160" height="30" as="geometry" />
        </mxCell>
        <mxCell id="Bz3XmAj7K0o91D-MTdjv-14" value="&lt;font face=&quot;Helvetica&quot; style=&quot;font-size: 14px;&quot;&gt;&lt;b style=&quot;&quot;&gt;Dropout-0.7&lt;/b&gt;&lt;/font&gt;" style="rounded=0;whiteSpace=wrap;html=1;strokeColor=#2C7FB3;" parent="1" vertex="1">
          <mxGeometry x="320" y="480" width="160" height="20" as="geometry" />
        </mxCell>
        <mxCell id="Bz3XmAj7K0o91D-MTdjv-16" value="&lt;font style=&quot;font-size: 14px;&quot;&gt;x&lt;sub&gt;k-1|k-1&lt;/sub&gt;&lt;/font&gt;" style="ellipse;whiteSpace=wrap;html=1;aspect=fixed;strokeWidth=2;strokeColor=#FF8000;" parent="1" vertex="1">
          <mxGeometry x="375" y="560" width="50" height="50" as="geometry" />
        </mxCell>
        <mxCell id="Bz3XmAj7K0o91D-MTdjv-17" value="" style="endArrow=block;html=1;rounded=1;exitX=0.5;exitY=0;exitDx=0;exitDy=0;entryX=0.5;entryY=1;entryDx=0;entryDy=0;strokeWidth=3;curved=0;strokeColor=#2C7FB3;endSize=6;startSize=6;jumpStyle=none;endFill=1;" parent="1" source="Bz3XmAj7K0o91D-MTdjv-16" target="Bz3XmAj7K0o91D-MTdjv-13" edge="1">
          <mxGeometry width="50" height="50" relative="1" as="geometry">
            <mxPoint x="610" y="470" as="sourcePoint" />
            <mxPoint x="610" y="430" as="targetPoint" />
          </mxGeometry>
        </mxCell>
        <mxCell id="Bz3XmAj7K0o91D-MTdjv-18" value="" style="endArrow=block;html=1;rounded=1;exitX=0.5;exitY=0;exitDx=0;exitDy=0;entryX=0.5;entryY=1;entryDx=0;entryDy=0;strokeWidth=3;curved=0;strokeColor=#2C7FB3;endSize=6;startSize=6;jumpStyle=none;endFill=1;" parent="1" source="Bz3XmAj7K0o91D-MTdjv-14" target="Bz3XmAj7K0o91D-MTdjv-11" edge="1">
          <mxGeometry width="50" height="50" relative="1" as="geometry">
            <mxPoint x="510" y="460" as="sourcePoint" />
            <mxPoint x="510" y="420" as="targetPoint" />
          </mxGeometry>
        </mxCell>
        <mxCell id="Bz3XmAj7K0o91D-MTdjv-19" value="" style="endArrow=block;html=1;rounded=1;exitX=0.5;exitY=0;exitDx=0;exitDy=0;entryX=0.5;entryY=1;entryDx=0;entryDy=0;strokeWidth=3;curved=0;strokeColor=#2C7FB3;endSize=6;startSize=6;jumpStyle=none;endFill=1;" parent="1" source="Bz3XmAj7K0o91D-MTdjv-12" target="Bz3XmAj7K0o91D-MTdjv-8" edge="1">
          <mxGeometry width="50" height="50" relative="1" as="geometry">
            <mxPoint x="540" y="380" as="sourcePoint" />
            <mxPoint x="540" y="340" as="targetPoint" />
          </mxGeometry>
        </mxCell>
        <mxCell id="Bz3XmAj7K0o91D-MTdjv-20" value="" style="endArrow=block;html=1;rounded=1;exitX=0.5;exitY=0;exitDx=0;exitDy=0;entryX=0.5;entryY=1;entryDx=0;entryDy=0;strokeWidth=3;curved=0;strokeColor=#2C7FB3;endSize=6;startSize=6;jumpStyle=none;endFill=1;" parent="1" source="Bz3XmAj7K0o91D-MTdjv-9" target="Bz3XmAj7K0o91D-MTdjv-7" edge="1">
          <mxGeometry width="50" height="50" relative="1" as="geometry">
            <mxPoint x="510" y="300" as="sourcePoint" />
            <mxPoint x="510" y="260" as="targetPoint" />
          </mxGeometry>
        </mxCell>
        <mxCell id="Bz3XmAj7K0o91D-MTdjv-21" value="" style="endArrow=block;html=1;rounded=1;exitX=0.5;exitY=0;exitDx=0;exitDy=0;entryX=0.5;entryY=1;entryDx=0;entryDy=0;strokeWidth=3;curved=0;strokeColor=#2C7FB3;endSize=6;startSize=6;jumpStyle=none;endFill=1;" parent="1" source="3hz-Cu_VJg6a0MOkvYrD-3" edge="1">
          <mxGeometry width="50" height="50" relative="1" as="geometry">
            <mxPoint x="490" y="150" as="sourcePoint" />
            <mxPoint x="400" y="170" as="targetPoint" />
          </mxGeometry>
        </mxCell>
        <mxCell id="Bz3XmAj7K0o91D-MTdjv-22" value="&lt;font style=&quot;&quot;&gt;&lt;b style=&quot;&quot;&gt;&lt;span style=&quot;font-size: 14px;&quot;&gt;(a) LSTM&lt;/span&gt;&lt;span style=&quot;font-size: 11.6667px;&quot;&gt;&lt;sub&gt;f&lt;/sub&gt;&lt;/span&gt;&lt;/b&gt;&lt;/font&gt;" style="text;html=1;align=center;verticalAlign=middle;whiteSpace=wrap;rounded=0;" parent="1" vertex="1">
          <mxGeometry x="352.5" y="640" width="95" height="30" as="geometry" />
        </mxCell>
        <mxCell id="Bz3XmAj7K0o91D-MTdjv-24" value="&lt;font style=&quot;&quot;&gt;&lt;b style=&quot;&quot;&gt;&lt;span style=&quot;font-size: 14px;&quot;&gt;(b) LSTM&lt;/span&gt;&lt;span style=&quot;font-size: 11.6667px;&quot;&gt;&lt;sub&gt;Q&lt;/sub&gt;&lt;/span&gt;&lt;/b&gt;&lt;/font&gt;" style="text;html=1;align=center;verticalAlign=middle;whiteSpace=wrap;rounded=0;" parent="1" vertex="1">
          <mxGeometry x="592.5" y="640" width="95" height="30" as="geometry" />
        </mxCell>
        <mxCell id="Bz3XmAj7K0o91D-MTdjv-25" value="&lt;font style=&quot;&quot;&gt;&lt;b style=&quot;&quot;&gt;&lt;span style=&quot;font-size: 14px;&quot;&gt;(c) LSTM&lt;/span&gt;&lt;span style=&quot;font-size: 11.6667px;&quot;&gt;&lt;sub&gt;R&lt;/sub&gt;&lt;/span&gt;&lt;/b&gt;&lt;/font&gt;" style="text;html=1;align=center;verticalAlign=middle;whiteSpace=wrap;rounded=0;" parent="1" vertex="1">
          <mxGeometry x="832.5" y="640" width="95" height="30" as="geometry" />
        </mxCell>
        <mxCell id="hf0ZCbTYDsrd_wAdct8u-2" value="&lt;font style=&quot;font-size: 14px;&quot;&gt;x&lt;sub&gt;k|k-1&lt;/sub&gt;&lt;/font&gt;" style="ellipse;whiteSpace=wrap;html=1;aspect=fixed;strokeWidth=2;strokeColor=#FF8000;" parent="1" vertex="1">
          <mxGeometry x="375" y="120" width="50" height="50" as="geometry" />
        </mxCell>
        <mxCell id="hf0ZCbTYDsrd_wAdct8u-3" value="&lt;span style=&quot;font-size: 14px;&quot;&gt;x&lt;/span&gt;&lt;sub&gt;k|k-1&lt;/sub&gt;" style="ellipse;whiteSpace=wrap;html=1;aspect=fixed;strokeWidth=2;strokeColor=#FF8000;" parent="1" vertex="1">
          <mxGeometry x="610" y="420" width="60" height="60" as="geometry" />
        </mxCell>
        <mxCell id="hf0ZCbTYDsrd_wAdct8u-4" value="&lt;span style=&quot;font-size: 14px;&quot;&gt;y&lt;sub&gt;m&lt;/sub&gt;&lt;/span&gt;" style="ellipse;whiteSpace=wrap;html=1;aspect=fixed;strokeWidth=2;strokeColor=#FF8000;" parent="1" vertex="1">
          <mxGeometry x="850" y="420" width="60" height="60" as="geometry" />
        </mxCell>
        <mxCell id="hf0ZCbTYDsrd_wAdct8u-5" value="&lt;sub&gt;&lt;span style=&quot;font-size: 12px;&quot;&gt;R&lt;sub&gt;k|k-1&lt;/sub&gt;&lt;/span&gt;&lt;/sub&gt;" style="ellipse;whiteSpace=wrap;html=1;aspect=fixed;strokeWidth=2;strokeColor=#FF8000;" parent="1" vertex="1">
          <mxGeometry x="850" y="190" width="60" height="60" as="geometry" />
        </mxCell>
      </root>
    </mxGraphModel>
  </diagram>
</mxfile>
